<?xml version="1.0"?>
<svg xmlns="http://www.w3.org/2000/svg" viewBox="0 0 64 64" width="512px" height="512px" class=""><g><g id="Analysis"><path d="M57,34H55.72A18.886,18.886,0,0,0,58,25c0-.35-.01-.71-.03-1.06a1,1,0,0,0-1-.94H40V7a1,1,0,0,0-1-1,18.751,18.751,0,0,0-7,1.35V3a1,1,0,0,0-1-1H10a1.033,1.033,0,0,0-.71.29l-7,7A1.033,1.033,0,0,0,2,10V35a1,1,0,0,0,1,1H6V61a1,1,0,0,0,1,1H57a1,1,0,0,0,1-1V35A1,1,0,0,0,57,34ZM32,9.53a16.885,16.885,0,0,1,6-1.5V24a1,1,0,0,0,1,1H56a16.816,16.816,0,0,1-2.6,9H32ZM9,5.41V9H5.41ZM4,34V11h6a1,1,0,0,0,1-1V4H30V34ZM56,60H8V36H56Z" data-original="#000000" class="active-path" data-old_color="#000000" fill="#00E0BB"/><path d="M43,2a1,1,0,0,0-1,1V20a1,1,0,0,0,1,1H61v-.01a.994.994,0,0,0,.7-.3,1.059,1.059,0,0,0,.27-.74A18.984,18.984,0,0,0,43,2Zm1,17V4.03A16.978,16.978,0,0,1,59.88,19Z" data-original="#000000" class="active-path" data-old_color="#000000" fill="#00E0BB"/><path d="M53,42a3.009,3.009,0,0,1-3-3,1,1,0,0,0-1-1H15a1,1,0,0,0-1,1,3.009,3.009,0,0,1-3,3,1,1,0,0,0-1,1V53a1,1,0,0,0,1,1,3.009,3.009,0,0,1,3,3,1,1,0,0,0,1,1H49a1,1,0,0,0,1-1,3.009,3.009,0,0,1,3-3,1,1,0,0,0,1-1V43A1,1,0,0,0,53,42ZM52,52.1A5.01,5.01,0,0,0,48.1,56H15.9A5.01,5.01,0,0,0,12,52.1V43.9A5.01,5.01,0,0,0,15.9,40H48.1A5.01,5.01,0,0,0,52,43.9Z" data-original="#000000" class="active-path" data-old_color="#000000" fill="#00E0BB"/><path d="M33,42a6,6,0,1,0,6,6A6,6,0,0,0,33,42Zm0,10a4,4,0,1,1,4-4A4,4,0,0,1,33,52Z" data-original="#000000" class="active-path" data-old_color="#000000" fill="#00E0BB"/><path d="M17,28a9,9,0,1,0-9-9A9.01,9.01,0,0,0,17,28Zm0-16a7,7,0,1,1-7,7A7.009,7.009,0,0,1,17,12Z" data-original="#000000" class="active-path" data-old_color="#000000" fill="#00E0BB"/><path d="M17,22a1,1,0,0,1-1-1H14a3,3,0,0,0,2,2.816V25h2V23.816A2.993,2.993,0,0,0,17,18a1,1,0,1,1,1-1h2a3,3,0,0,0-2-2.816V13H16v1.184A2.993,2.993,0,0,0,17,20a1,1,0,0,1,0,2Z" data-original="#000000" class="active-path" data-old_color="#000000" fill="#00E0BB"/></g></g> </svg>
