<?xml version="1.0"?>
<svg xmlns="http://www.w3.org/2000/svg" id="filled_outline" height="512px" viewBox="0 0 512 512" width="512px" data-name="filled outline" class=""><g><path d="m296 488h-272v-352h200l72 64z" fill="#548aff" data-original="#548AFF"/><path d="m216 360h272v128h-272z" fill="#08d175" data-original="#08D175" class=""/><path d="m296 24a104 104 0 1 0 104 104 103.997 103.997 0 0 0 -104-104zm0 144a40 40 0 1 1 40-40 40.00186 40.00186 0 0 1 -40 40z" fill="#ffc431" data-original="#FFC431"/><path d="m312 360h80v128h-80z" fill="#ffc431" data-original="#FFC431"/><path d="m384 360 11.27252-4.83108a88.99534 88.99534 0 0 0 52.72748-67.16887l9.65025 12.06282a55.91629 55.91629 0 0 1 6.34975 59.93713z" fill="#00b55b" data-original="#00B55B"/><path d="m400 128-32-16-32 16a40 40 0 0 0 -80 0l-32 16-32-16a104 104 0 0 1 208 0z" fill="#ffa100" data-original="#FFA100"/><path d="m288 256h16v80h-16z" data-original="#000000" class="active-path" style="fill:#FF4D5E" data-old_color="#000000"/><path d="m24 496h168v-16h-160v-336h136v-16h-144a8.00008 8.00008 0 0 0 -8 8v352a8.00008 8.00008 0 0 0 8 8z" data-original="#000000" class="active-path" style="fill:#FF4D5E" data-old_color="#000000"/><path d="m56 168h32v16h-32z" data-original="#000000" class="active-path" style="fill:#FF4D5E" data-old_color="#000000"/><path d="m104 168h48v16h-48z" data-original="#000000" class="active-path" style="fill:#FF4D5E" data-old_color="#000000"/><path d="m56 200h48v16h-48z" data-original="#000000" class="active-path" style="fill:#FF4D5E" data-old_color="#000000"/><path d="m56 264h40v16h-40z" data-original="#000000" class="active-path" style="fill:#FF4D5E" data-old_color="#000000"/><path d="m112 264h24v16h-24z" data-original="#000000" class="active-path" style="fill:#FF4D5E" data-old_color="#000000"/><path d="m152 312h96v16h-96z" data-original="#000000" class="active-path" style="fill:#FF4D5E" data-old_color="#000000"/><path d="m104 312h32v16h-32z" data-original="#000000" class="active-path" style="fill:#FF4D5E" data-old_color="#000000"/><path d="m64 352h40v16h-40z" data-original="#000000" class="active-path" style="fill:#FF4D5E" data-old_color="#000000"/><path d="m120 352h72v16h-72z" data-original="#000000" class="active-path" style="fill:#FF4D5E" data-old_color="#000000"/><path d="m152 392h40v16h-40z" data-original="#000000" class="active-path" style="fill:#FF4D5E" data-old_color="#000000"/><path d="m64 392h72v16h-72z" data-original="#000000" class="active-path" style="fill:#FF4D5E" data-old_color="#000000"/><path d="m488 352h-12.4198a64.14121 64.14121 0 0 0 -11.68274-56.93555l-9.65039-12.0625a8.00064 8.00064 0 0 0 -14.13818 3.68262 80.64885 80.64885 0 0 1 -47.9878 61.13086l-9.76397 4.18457h-166.35712a8.00008 8.00008 0 0 0 -8 8v128a8.00008 8.00008 0 0 0 8 8h272a8.00008 8.00008 0 0 0 8-8v-128a8.00008 8.00008 0 0 0 -8-8zm-8 32h-80v-16h80zm-160-16h64v112h-64zm80 64h80v16h-80zm0-16v-16h80v16zm51.75439-110.49609a48.08461 48.08461 0 0 1 7.02253 46.49609h-41.73392a96.31956 96.31956 0 0 0 34.71139-46.49609zm-227.75439 62.49609h80v16h-64v16h64v16h-64v16h64v16h-64v16h64v16h-80zm176 112v-16h80v16z" data-original="#000000" class="active-path" style="fill:#FF4D5E" data-old_color="#000000"/><path d="m405.00293 153.83887-15.57129-3.67774a96.42245 96.42245 0 0 1 -33.44726 52.7959 94.95058 94.95058 0 0 1 -59.98438 21.04297 96.14412 96.14412 0 0 1 -95.06641-82.58887l19.48877 9.74414a7.99431 7.99431 0 0 0 7.15528 0l21.9834-10.99121a48.00708 48.00708 0 0 0 84.835 16.64551l-12.792-9.61133a32.00179 32.00179 0 0 1 -57.60404-19.19824 7.99928 7.99928 0 0 0 -11.57764-7.15527l-28.42236 14.21093-28.42236-14.21093a7.99928 7.99928 0 0 0 -11.57764 7.15527 112.015 112.015 0 0 0 221.00293 25.83887z" data-original="#000000" class="active-path" style="fill:#FF4D5E" data-old_color="#000000"/><path d="m408 128a112.015 112.015 0 0 0 -221.00293-25.83887l15.57129 3.67774a96.42245 96.42245 0 0 1 33.44726-52.79587 94.95058 94.95058 0 0 1 59.98438-21.043 96.14412 96.14412 0 0 1 95.06641 82.58887l-19.48877-9.74414a7.99431 7.99431 0 0 0 -7.15528 0l-21.98336 10.99121a48.00708 48.00708 0 0 0 -84.835-16.64551l12.792 9.61133a32.00179 32.00179 0 0 1 57.604 19.19824 7.99928 7.99928 0 0 0 11.57764 7.15527l28.42236-14.21093 28.42236 14.21093a7.99928 7.99928 0 0 0 11.57764-7.15527z" data-original="#000000" class="active-path" style="fill:#FF4D5E" data-old_color="#000000"/></g> </svg>
