<svg height="512" viewBox="0 0 64 64" width="512" xmlns="http://www.w3.org/2000/svg" xmlns:xlink="http://www.w3.org/1999/xlink"><linearGradient id="New_Gradient_Swatch_1" gradientUnits="userSpaceOnUse" x1="32" x2="32" y1="-.971" y2="67.539"><stop offset="0" stop-color="#fff33b"/><stop offset=".014" stop-color="#fee72e"/><stop offset=".042" stop-color="#fed51b"/><stop offset=".07" stop-color="#fdca10"/><stop offset=".1" stop-color="#fdc70c"/><stop offset=".4" stop-color="#f3903f"/><stop offset=".8" stop-color="#ed683c"/><stop offset="1" stop-color="#e93e3a"/></linearGradient><linearGradient id="New_Gradient_Swatch_1-2" x1="46" x2="46" xlink:href="#New_Gradient_Swatch_1" y1="-.971" y2="67.539"/><linearGradient id="New_Gradient_Swatch_1-4" x1="37" x2="37" xlink:href="#New_Gradient_Swatch_1" y1="-.971" y2="67.539"/><linearGradient id="New_Gradient_Swatch_1-5" x1="41" x2="41" xlink:href="#New_Gradient_Swatch_1" y1="-.971" y2="67.539"/><linearGradient id="New_Gradient_Swatch_1-6" x1="45" x2="45" xlink:href="#New_Gradient_Swatch_1" y1="-.971" y2="67.539"/><linearGradient id="New_Gradient_Swatch_1-7" x1="49" x2="49" xlink:href="#New_Gradient_Swatch_1" y1="-.971" y2="67.539"/><linearGradient id="New_Gradient_Swatch_1-8" x1="53" x2="53" xlink:href="#New_Gradient_Swatch_1" y1="-.971" y2="67.539"/><linearGradient id="New_Gradient_Swatch_1-14" x1="18" x2="18" xlink:href="#New_Gradient_Swatch_1" y1="-.971" y2="67.539"/><linearGradient id="New_Gradient_Swatch_1-15" x1="8.467" x2="8.467" xlink:href="#New_Gradient_Swatch_1" y1="-.971" y2="67.539"/><linearGradient id="New_Gradient_Swatch_1-16" x1="27.533" x2="27.533" xlink:href="#New_Gradient_Swatch_1" y1="-.971" y2="67.539"/><linearGradient id="New_Gradient_Swatch_1-17" x1="5" x2="5" xlink:href="#New_Gradient_Swatch_1" y1="-.971" y2="67.539"/><linearGradient id="New_Gradient_Swatch_1-18" x1="3" x2="3" xlink:href="#New_Gradient_Swatch_1" y1="-.971" y2="67.539"/><linearGradient id="New_Gradient_Swatch_1-20" x1="7" x2="7" xlink:href="#New_Gradient_Swatch_1" y1="-.971" y2="67.539"/><linearGradient id="New_Gradient_Swatch_1-21" x1="15" x2="15" xlink:href="#New_Gradient_Swatch_1" y1="-.971" y2="67.539"/><linearGradient id="New_Gradient_Swatch_1-22" x1="13" x2="13" xlink:href="#New_Gradient_Swatch_1" y1="-.971" y2="67.539"/><linearGradient id="New_Gradient_Swatch_1-24" x1="17" x2="17" xlink:href="#New_Gradient_Swatch_1" y1="-.971" y2="67.539"/><g id="smartphone-pay_in-pay_out-online_marketing-money" data-name="smartphone-pay in-pay out-online marketing-money"><path d="m59 2h-28a3.009 3.009 0 0 0 -3 3v14.53a16 16 0 1 0 0 24.94v14.53a3.009 3.009 0 0 0 3 3h28a3.009 3.009 0 0 0 3-3v-54a3.009 3.009 0 0 0 -3-3zm-4.28 2-.5 2h-18.44l-.5-2zm-36.72 42a14 14 0 1 1 14-14 14.015 14.015 0 0 1 -14 14zm42 13a1 1 0 0 1 -1 1h-28a1 1 0 0 1 -1-1v-16.45a15.913 15.913 0 0 0 0-21.1v-16.45a1 1 0 0 1 1-1h2.22l.81 3.24a1 1 0 0 0 .97.76h20a1 1 0 0 0 .97-.76l.81-3.24h2.22a1 1 0 0 1 1 1z" fill="url(#New_Gradient_Swatch_1)"/><path d="m55 18h-11v-2a1 1 0 0 0 -1.64-.77l-6 5a1 1 0 0 0 0 1.54l6 5a1 1 0 0 0 .64.23 1.023 1.023 0 0 0 .42-.09 1 1 0 0 0 .58-.91v-2h11a1 1 0 0 0 1-1v-4a1 1 0 0 0 -1-1zm-1 4h-11a1 1 0 0 0 -1 1v.87l-3.44-2.87 3.44-2.87v.87a1 1 0 0 0 1 1h11z" fill="url(#New_Gradient_Swatch_1-2)"/><path d="m55.64 47.23-6-5a1 1 0 0 0 -1.64.77v2h-11a1 1 0 0 0 -1 1v4a1 1 0 0 0 1 1h11v2a1 1 0 0 0 .58.91 1.023 1.023 0 0 0 .42.09 1 1 0 0 0 .64-.23l6-5a1 1 0 0 0 0-1.54zm-5.64 3.64v-.87a1 1 0 0 0 -1-1h-11v-2h11a1 1 0 0 0 1-1v-.87l3.44 2.87z" fill="url(#New_Gradient_Swatch_1-2)"/><path d="m36 29h2v2h-2z" fill="url(#New_Gradient_Swatch_1-4)"/><path d="m40 29h2v2h-2z" fill="url(#New_Gradient_Swatch_1-5)"/><path d="m44 29h2v2h-2z" fill="url(#New_Gradient_Swatch_1-6)"/><path d="m48 29h2v2h-2z" fill="url(#New_Gradient_Swatch_1-7)"/><path d="m52 29h2v2h-2z" fill="url(#New_Gradient_Swatch_1-8)"/><path d="m36 38h2v2h-2z" fill="url(#New_Gradient_Swatch_1-4)"/><path d="m40 38h2v2h-2z" fill="url(#New_Gradient_Swatch_1-5)"/><path d="m44 38h2v2h-2z" fill="url(#New_Gradient_Swatch_1-6)"/><path d="m48 38h2v2h-2z" fill="url(#New_Gradient_Swatch_1-7)"/><path d="m52 38h2v2h-2z" fill="url(#New_Gradient_Swatch_1-8)"/><path d="m18 27a2 2 0 0 1 2 2h2a4 4 0 0 0 -3-3.858v-2.142h-2v2.142a3.992 3.992 0 0 0 1 7.858 2 2 0 1 1 -2 2h-2a3.987 3.987 0 0 0 2 3.444v2.556h2v-2a4 4 0 0 0 0-8 2 2 0 0 1 0-4z" fill="url(#New_Gradient_Swatch_1-14)"/><path d="m9.515 23.515a12.013 12.013 0 0 0 0 16.97l1.414-1.414a10.011 10.011 0 0 1 0-14.142z" fill="url(#New_Gradient_Swatch_1-15)"/><path d="m26.485 23.515-1.414 1.414a10.011 10.011 0 0 1 0 14.142l1.414 1.414a12.013 12.013 0 0 0 0-16.97z" fill="url(#New_Gradient_Swatch_1-16)"/><path d="m4 2h2v2h-2z" fill="url(#New_Gradient_Swatch_1-17)"/><path d="m2 4h2v2h-2z" fill="url(#New_Gradient_Swatch_1-18)"/><path d="m4 6h2v2h-2z" fill="url(#New_Gradient_Swatch_1-17)"/><path d="m6 4h2v2h-2z" fill="url(#New_Gradient_Swatch_1-20)"/><path d="m14 8h2v2h-2z" fill="url(#New_Gradient_Swatch_1-21)"/><path d="m12 10h2v2h-2z" fill="url(#New_Gradient_Swatch_1-22)"/><path d="m14 12h2v2h-2z" fill="url(#New_Gradient_Swatch_1-21)"/><path d="m16 10h2v2h-2z" fill="url(#New_Gradient_Swatch_1-24)"/><path d="m14 50h2v2h-2z" fill="url(#New_Gradient_Swatch_1-21)"/><path d="m12 52h2v2h-2z" fill="url(#New_Gradient_Swatch_1-22)"/><path d="m14 54h2v2h-2z" fill="url(#New_Gradient_Swatch_1-21)"/><path d="m16 52h2v2h-2z" fill="url(#New_Gradient_Swatch_1-24)"/><path d="m4 56h2v2h-2z" fill="url(#New_Gradient_Swatch_1-17)"/><path d="m2 58h2v2h-2z" fill="url(#New_Gradient_Swatch_1-18)"/><path d="m4 60h2v2h-2z" fill="url(#New_Gradient_Swatch_1-17)"/><path d="m6 58h2v2h-2z" fill="url(#New_Gradient_Swatch_1-20)"/></g></svg>