<?xml version="1.0"?>
<svg xmlns="http://www.w3.org/2000/svg" height="512px" viewBox="0 0 496 496" width="512px" class=""><g><path d="m352 216v16h-14.113281c-10.460938 0-20.941407-2.480469-30.3125-7.160156l-19.574219-9.785156v-175.054688c0-22.054688-17.945312-40-40-40h-208c-22.054688 0-40 17.945312-40 40v416c0 22.054688 17.945312 40 40 40h208c22.054688 0 40-17.945312 40-40v-98.015625c6.769531-1.480469 13.375-3.726563 19.574219-6.832031 9.371093-4.671875 19.851562-7.152344 30.3125-7.152344h14.113281v16h144v-144zm-92.425781-15.160156c-9.789063-4.894532-20.574219-7.703125-31.484375-8.496094l26.902344-99.542969c.671874-2.480469 1.007812-5.039062 1.007812-7.617187 0-1.777344-.214844-3.496094-.527344-5.183594h16.527344v127.054688zm-53.015625 71.160156h17.441406c4.40625 0 8 3.585938 8 8s-3.59375 8-8 8h-21.769531zm-20.894532 16h-29.910156l33.78125-124.992188 27.441406 9.144532zm-84.367187 20.488281c-3.234375-2.710937-5.296875-6.664062-5.296875-11.113281 0-3.847656 1.558594-7.613281 4.289062-10.34375l53.648438-53.65625-14.761719 54.625h-3.175781c-14.9375 0-27.832031 8.328125-34.703125 20.488281zm110.199219-226.746093c1.542968-5.734376 6.785156-9.742188 12.726562-9.742188h2.59375c7.273438 0 13.183594 5.910156 13.183594 13.183594 0 1.167968-.152344 2.320312-.457031 3.449218l-9.800781 36.246094-27.4375-9.144531zm-13.367188 49.457031 27.4375 9.144531-4.414062 16.335938-27.441406-9.144532zm-158.128906-115.199219h208c13.230469 0 24 10.769531 24 24v24h-25.230469c-5.226562-4.929688-12.226562-8-19.953125-8h-2.59375c-7.613281 0-14.636718 3.03125-19.925781 8h-188.296875v-24c0-13.230469 10.769531-24 24-24zm208 464h-208c-13.230469 0-24-10.769531-24-24v-24h256v24c0 13.230469-10.769531 24-24 24zm24-64h-256v-336h179.390625l-33.070313 122.367188-21.632812 21.632812h-108.6875v16h92.6875l-16 16h-76.6875v16h60.695312l-3.71875 3.71875c-3.488281 3.488281-5.90625 7.714844-7.375 12.28125h-49.601562v16h48.800781c1.367188 6.238281 4.589844 11.792969 9.230469 16h-58.03125v16h66.222656c2.777344 4.761719 7.882813 8 13.777344 8h12.039062l-3.023437 11.191406c-.679687 2.480469-1.015625 5.039063-1.015625 7.625 0 10.816406 5.984375 20.167969 14.753906 25.207032l-2.515625 10.039062 15.523438 3.875 2.484375-9.9375h1.53125c13.160156 0 24.742187-8.863281 28.175781-21.566406l5.902344-21.832032c.242187.09375.488281.160157.730469.253907l12.894531 5.160156c9.925781 3.976563 20.398437 5.992187 31.121093 5.992187h39.519532c.632812 0 1.253906-.097656 1.886718-.113281v56.105469zm-122.816406-40c-7.273438 0-13.183594-5.910156-13.183594-13.183594 0-1.167968.152344-2.320312.457031-3.449218l4.152344-15.367188h20.789063c3.007812 0 5.984374.273438 8.9375.664062l-5.839844 21.601563c-1.535156 5.726563-6.777344 9.734375-12.71875 9.734375zm188.703125-48c-12.925781 0-25.878907 3.054688-37.460938 8.839844-9.371093 4.679687-19.851562 7.160156-30.3125 7.160156h-39.519531c-8.664062 0-17.136719-1.632812-25.179688-4.847656l-12.894531-5.160156c-9.925781-3.976563-20.398437-5.992188-31.113281-5.992188h-49.40625c0-13.230469 10.769531-24 24-24h88c13.230469 0 24-10.769531 24-24s-10.769531-24-24-24h-13.121094l12.945313-47.894531c9.886719.253906 19.734375 2.628906 28.589843 7.054687l48 24c11.585938 5.785156 24.546876 8.839844 37.472657 8.839844h14.113281v80zm142.113281 16h-80v-32h-16v32h-16v-112h16v64h16v-64h80zm0 0" data-original="#000000" class="active-path" data-old_color="#000000" fill="#F24593"/><path d="m96 448h96v16h-96zm0 0" data-original="#000000" class="active-path" data-old_color="#000000" fill="#F24593"/><path d="m32 96h16v16h-16zm0 0" data-original="#000000" class="active-path" data-old_color="#000000" fill="#F24593"/><path d="m64 96h104v16h-104zm0 0" data-original="#000000" class="active-path" data-old_color="#000000" fill="#F24593"/><path d="m32 128h16v16h-16zm0 0" data-original="#000000" class="active-path" data-old_color="#000000" fill="#F24593"/><path d="m64 128h104v16h-104zm0 0" data-original="#000000" class="active-path" data-old_color="#000000" fill="#F24593"/><path d="m32 160h104v16h-104zm0 0" data-original="#000000" class="active-path" data-old_color="#000000" fill="#F24593"/><path d="m32 192h104v16h-104zm0 0" data-original="#000000" class="active-path" data-old_color="#000000" fill="#F24593"/></g> </svg>
