<?xml version="1.0"?>
<svg xmlns="http://www.w3.org/2000/svg" id="Capa_1" enable-background="new 0 0 512 512" height="512px" viewBox="0 0 512 512" width="512px" class=""><g><g><g><path d="m7.5 431c0 8.25 6.75 15 15 15h467c8.25 0 15-6.75 15-15v-5l-248.5-32.956-248.5 22.956z" fill="#a2abb8" data-original="#A2ABB8"/><path d="m27.5 66h-5c-8.25 0-15 6.75-15 15v46l248.5 22.956z" fill="#a2abb8" data-original="#A2ABB8"/><path d="m27.5 128.848 228.5 21.108 248.5-22.956v-46c0-8.25-6.75-15-15-15h-462z" fill="#c8d2dc" data-original="#C8D2DC" class=""/><path d="m28.38 416h-20.88v-289h20z" fill="#e9edf1" data-original="#E9EDF1"/><path d="m27.834 414.122c1.447 6.764 7.486 11.878 14.666 11.878h462v-10l-248.5-22.956z" fill="#c8d2dc" data-original="#C8D2DC" class=""/><path d="m27.5 411c0 1.754.321 3.432.88 5h476.12v-289h-477z" fill="#f7f9fa" data-original="#F7F9FA" class=""/><path d="m474.95 127h29.55v289h-29.55z" fill="#e9edf1" data-original="#E9EDF1"/><circle cx="246" cy="290.823" fill="#a2abb8" r="115" data-original="#A2ABB8"/><circle cx="256" cy="270.823" fill="#de5791" r="115" data-original="#DE5791"/><path d="m306.104 329.714c-1.308-1.308-18.892-18.892-38.891-38.891 19.999-19.999 37.583-37.583 38.891-38.891 5.858-5.858 5.858-15.355 0-21.213s-15.355-5.858-21.213 0c-1.308 1.308-18.892 18.892-38.891 38.891-19.999-19.999-37.583-37.583-38.891-38.891-5.858-5.858-15.355-5.858-21.213 0s-5.858 15.355 0 21.213c1.308 1.308 18.892 18.892 38.891 38.891-19.999 19.999-37.583 37.583-38.891 38.891-5.858 5.858-5.858 15.355 0 21.213s15.355 5.858 21.213 0c1.308-1.308 18.892-18.892 38.891-38.891l38.891 38.891c5.858 5.858 15.355 5.858 21.213 0s5.858-15.355 0-21.213z" fill="#da0b62" data-original="#DA0B62"/><path d="m316.104 309.714c-1.308-1.308-18.892-18.892-38.891-38.891 19.999-19.999 37.583-37.583 38.891-38.891 5.858-5.858 5.858-15.355 0-21.213s-15.355-5.858-21.213 0c-1.308 1.308-18.892 18.892-38.891 38.891-19.999-19.999-37.583-37.583-38.891-38.891-5.858-5.858-15.355-5.858-21.213 0s-5.858 15.355 0 21.213l38.891 38.891c-19.999 19.999-37.583 37.583-38.891 38.891-5.858 5.858-5.858 15.355 0 21.213s15.355 5.858 21.213 0l38.891-38.891 38.891 38.891c5.858 5.858 15.355 5.858 21.213 0s5.858-15.355 0-21.213z" fill="#f9c8dc" data-original="#F9C8DC"/></g><g><path d="m489.5 453.5h-467c-12.406 0-22.5-10.094-22.5-22.5v-274c0-4.143 3.357-7.5 7.5-7.5s7.5 3.357 7.5 7.5v251.5h482v-274h-15v251.5c0 4.143-3.357 7.5-7.5 7.5s-7.5-3.357-7.5-7.5v-251.5h-459.5c-4.143 0-7.5-3.357-7.5-7.5v-46c0-12.406 10.094-22.5 22.5-22.5h361c4.143 0 7.5 3.357 7.5 7.5s-3.357 7.5-7.5 7.5h-361c-4.136 0-7.5 3.364-7.5 7.5v38.5h482v-38.5c0-4.136-3.364-7.5-7.5-7.5h-76c-4.143 0-7.5-3.357-7.5-7.5s3.357-7.5 7.5-7.5h76c12.406 0 22.5 10.094 22.5 22.5v350c0 12.406-10.094 22.5-22.5 22.5zm-474.5-30v7.5c0 4.136 3.364 7.5 7.5 7.5h467c4.136 0 7.5-3.364 7.5-7.5v-7.5zm241-30.177c-67.547 0-122.5-54.953-122.5-122.5s54.953-122.5 122.5-122.5c16.16 0 31.866 3.099 46.684 9.211 3.829 1.58 5.652 5.965 4.073 9.794-1.581 3.828-5.962 5.651-9.794 4.073-12.993-5.36-26.775-8.078-40.963-8.078-59.275 0-107.5 48.225-107.5 107.5s48.225 107.5 107.5 107.5 107.5-48.225 107.5-107.5c0-33.66-15.327-64.747-42.051-85.288-3.284-2.524-3.9-7.232-1.376-10.517 2.523-3.284 7.232-3.902 10.517-1.376 30.447 23.403 47.91 58.824 47.91 97.181 0 67.547-54.953 122.5-122.5 122.5zm49.497-50.513c-5.762 0-11.523-2.192-15.909-6.578l-33.588-33.589c-17.713 17.713-32.395 32.396-33.585 33.587-8.776 8.774-23.052 8.772-31.822.002-8.772-8.773-8.772-23.048-.001-31.82 1.193-1.192 15.876-15.875 33.589-33.588l-33.589-33.587c-8.771-8.773-8.771-23.048 0-31.82 8.773-8.771 23.049-8.772 31.82-.001l33.588 33.588c17.713-17.713 32.395-32.396 33.585-33.587 8.776-8.774 23.052-8.772 31.822-.002 8.772 8.773 8.772 23.048.001 31.82-1.193 1.192-15.876 15.875-33.589 33.588l33.589 33.587v.001c8.771 8.772 8.771 23.047 0 31.819-4.387 4.386-10.149 6.58-15.911 6.58zm-98.994-128.981c-1.921 0-3.842.731-5.305 2.193-2.923 2.924-2.923 7.683.001 10.607l38.892 38.89c2.929 2.93 2.929 7.678 0 10.607-20 20-37.585 37.585-38.894 38.893-2.922 2.922-2.922 7.681.002 10.605 2.925 2.923 7.683 2.922 10.607-.001 1.305-1.307 18.89-18.892 38.89-38.892 2.93-2.928 7.678-2.928 10.607 0l38.891 38.892c2.925 2.925 7.683 2.923 10.607 0 2.923-2.924 2.923-7.683-.001-10.607l-38.892-38.89c-2.929-2.93-2.929-7.678 0-10.607 20-20 37.585-37.585 38.894-38.893 2.922-2.922 2.922-7.681-.002-10.605-2.925-2.923-7.683-2.922-10.607.001-1.305 1.307-18.89 18.892-38.89 38.892-2.93 2.928-7.678 2.928-10.607 0l-38.891-38.892c-1.461-1.461-3.382-2.193-5.302-2.193zm267.497-109.329c-4.411 0-8-3.589-8-8s3.589-8 8-8 8 3.589 8 8-3.589 8-8 8zm-30 0c-4.411 0-8-3.589-8-8s3.589-8 8-8 8 3.589 8 8-3.589 8-8 8zm-30 0c-4.411 0-8-3.589-8-8 0-4.143 3.357-7.5 7.5-7.5.168 0 .335.006.5.017.165-.011.332-.017.5-.017 4.143 0 7.5 3.357 7.5 7.5 0 4.411-3.589 8-8 8zm7-8h.01zm-14-.022v.022c0-.008 0-.015 0-.022z" data-original="#000000" class="active-path" data-old_color="#000000" style="fill:#8736F2"/></g></g></g> </svg>
