<?xml version="1.0"?>
<svg xmlns="http://www.w3.org/2000/svg" id="Capa_1" enable-background="new 0 0 508.674 508.674" height="512px" viewBox="0 0 508.674 508.674" width="512px" class=""><g><g><path d="m352.523 248.567c-4.129 0-7.476 3.347-7.476 7.476v217.434c0 11.164-9.082 20.246-20.246 20.246h-201.12c-4.129 0-7.476 3.347-7.476 7.476s3.347 7.476 7.476 7.476h201.12c19.408 0 35.197-15.79 35.197-35.197v-217.435c0-4.129-3.347-7.476-7.475-7.476z" data-original="#000000" class="active-path" data-old_color="#000000" fill="#011847"/><path d="m201.743 265.004c4.129 0 7.476-3.347 7.476-7.476s-3.347-7.476-7.476-7.476h-38.617c-4.129 0-7.476 3.347-7.476 7.476s3.347 7.476 7.476 7.476z" data-original="#000000" class="active-path" data-old_color="#000000" fill="#011847"/><path d="m280.8 411.283h-38.617c-4.129 0-7.476 3.347-7.476 7.476s3.347 7.476 7.476 7.476h38.617c4.129 0 7.476-3.347 7.476-7.476-.001-4.13-3.348-7.476-7.476-7.476z" data-original="#000000" class="active-path" data-old_color="#000000" fill="#011847"/><path d="m80.909 297.836c0 4.129 3.347 7.476 7.476 7.476h192.415c4.129 0 7.476-3.347 7.476-7.476s-3.347-7.476-7.476-7.476h-192.416c-4.128 0-7.475 3.347-7.475 7.476z" data-original="#000000" class="active-path" data-old_color="#000000" fill="#011847"/><path d="m88.384 345.62h192.416c4.129 0 7.476-3.347 7.476-7.476s-3.347-7.476-7.476-7.476h-192.416c-4.129 0-7.476 3.347-7.476 7.476s3.348 7.476 7.476 7.476z" data-original="#000000" class="active-path" data-old_color="#000000" fill="#011847"/><path d="m88.384 385.928h192.416c4.129 0 7.476-3.347 7.476-7.476s-3.347-7.476-7.476-7.476h-192.416c-4.129 0-7.476 3.347-7.476 7.476.001 4.129 3.348 7.476 7.476 7.476z" data-original="#000000" class="active-path" data-old_color="#000000" fill="#011847"/><path d="m435.575 34.782c-7.53-7.156-15.934-13.373-24.979-18.474-3.595-2.029-8.155-.757-10.184 2.838-2.029 3.596-.758 8.155 2.838 10.184 7.974 4.498 15.384 9.978 22.024 16.29 1.716 1.631 3.368 3.32 4.969 5.051l-37.05 18.903c-4.936 2.519-10.869 1.846-15.115-1.713l-15.431-12.933-.225-17.393c-.053-4.096-3.389-7.379-7.473-7.379-.033 0-.066 0-.099.001-4.128.053-7.431 3.443-7.378 7.571l.199 15.378-19.096 6.425c-3.914 1.317-6.018 5.556-4.702 9.469 1.316 2.616 4.404 6.263 9.469 4.702l20.285-6.825 14.847 12.444c5.292 4.435 11.839 6.719 18.448 6.719 4.448 0 8.926-1.035 13.066-3.147l6.968-3.555 2.161 12.356c1.579 8.827 15.687 7.587 14.728-2.576l-2.954-16.89 18.93-9.658c12.95 18.586 20.12 40.935 20.12 63.826v22.993l-15.561-15.539 3.755-17.045c.888-4.032-1.66-8.021-5.692-8.909-4.034-.89-8.021 1.66-8.909 5.692l-3.345 15.183-13.772.01c-4.129.003-7.473 3.352-7.47 7.481.003 4.127 3.349 7.471 7.476 7.471h.005l16.679-.012 23.339 23.307c-6.458 14.745-21.184 25.077-38.284 25.077h-121.258c-13.127 0-24.649-8.847-28.019-21.515-1.556-5.847-5.776-10.67-11.288-12.901l-41.055-16.617c-16.369-6.625-26.947-22.317-26.947-39.977 0-13.734 6.626-26.763 17.724-34.853l41.033-29.907c11.595-8.452 24.474-14.478 38.087-17.939-.002.053.013.106-.001.159l-8.6 33.782-11.671 4.651c-3.835 1.528-5.706 5.876-4.177 9.712 2.193 2.87 3.722 5.857 9.712 4.177l10.324-4.114 10.125 11.452c2.733 2.064 5.164 4.126 10.553.647 3.093-2.735 3.383-7.459.648-10.553l-10.988-12.426 8.564-33.639c.555-2.178.627-4.411.257-6.561 4.226-.482 8.5-.733 12.81-.733h34.501c7.159 0 14.352.696 21.377 2.069 4.053.798 7.979-1.85 8.771-5.903.792-4.051-1.851-7.979-5.903-8.77-7.968-1.557-16.125-2.346-24.245-2.346h-34.501c-26.938 0-52.682 8.387-74.45 24.254l-41.033 29.907c-4.122 3.005-7.767 6.529-10.911 10.426h-35.424c-1.576.127-3.289.279-5.286 2.189l-110.919 110.919c-.915.987-2.22 2.788-2.189 5.287v290.495c0 19.408 15.79 35.197 35.197 35.197h17.41c4.129 0 7.476-3.347 7.476-7.476s-3.347-7.476-7.476-7.476h-17.41c-11.164 0-20.246-9.082-20.246-20.246v-283.018h79.169c17.507 0 31.75-14.243 31.75-31.75v-79.169h19.187c-2.719 6.784-4.197 14.088-4.197 21.557 0 23.782 14.244 44.914 36.289 53.836l41.055 16.617c1.196.485 2.089 1.536 2.448 2.886 5.111 19.207 22.574 32.622 42.468 32.622h48.616l11.849 17.411c.439.644.975 1.217 1.591 1.696l20.295 15.78c3.309 2.405 8.971 3.969 14.535.459 4.447-3.026 6.418-8.528 4.905-13.69l-6.349-21.656h25.815c31.281 0 56.73-25.449 56.73-56.73v-23.931c.002-34.472-14.329-67.865-39.315-91.614zm-290.873 123.926c0 9.263-7.536 16.798-16.799 16.798h-68.597l85.396-85.395zm232.744 50.673 4.639 15.825-13.018-10.122-5.462-8.026h12.259z" data-original="#000000" class="active-path" data-old_color="#000000" fill="#011847"/><path d="m246.531 86.023c0-4.129-3.347-7.476-7.476-7.476s-7.476 3.347-7.476 7.476v7.034c0 4.314-1.68 8.37-4.73 11.42l-9.278 9.278c-2.92 2.92-2.92 7.653 0 10.573 2.337 2.156 6.691 3.39 10.572 0l9.278-9.278c.883-.883 1.699-1.815 2.461-2.781l15.335 9.876c2.391 1.549 7.02 1.942 10.333-2.238 2.235-3.471 1.234-8.097-2.237-10.333l-17.256-11.114c.308-1.768.474-3.572.474-5.404z" data-original="#000000" class="active-path" data-old_color="#000000" fill="#011847"/><path d="m350.811 94.726c-4.129 0-7.476 3.347-7.476 7.476v9.805l-17.113-.612c-2.401-.088-4.777.086-7.099.491l-20.381-12.269c-3.539-2.131-8.131-.988-10.261 2.549-2.129 3.537-.988 8.131 2.549 10.261l11.835 7.124-18.152 15.509c-3.139 2.682-3.509 7.401-.827 10.54 2.682 3.14 7.401 3.508 10.54.827l18.168-15.523c3.648-3.117 8.3-4.729 13.093-4.568l18.286.654c1.187.043 2.318.578 3.102 1.47l15.519 17.646-6.84 16.199c-1.606 3.803.175 8.188 3.979 9.794 2.703 1.057 7.513.623 9.794-3.979l6.241-14.782 15.848 3.513c3.126.702 7.466-1.016 8.916-5.681.894-4.031-1.65-8.023-5.681-8.916l-19.546-4.333-17.005-19.336c-.005-.006-.012-.011-.017-.017v-16.367c.004-4.128-3.343-7.475-7.472-7.475z" data-original="#000000" class="active-path" data-old_color="#000000" fill="#011847"/></g></g> </svg>
