<svg enable-background="new 0 0 24 24" height="512" viewBox="0 0 24 24" width="512" xmlns="http://www.w3.org/2000/svg"><path d="m13.609 10.051v-8.453c0-1.381-2.087-1.379-2.087 0v8.963c.574-.458 1.367-.636 2.087-.51z" fill="#ffcc80"/><path d="m14.652 2.793v7.847c.227.159.33.296 2.087 2.035v-9.882c0-1.38-2.087-1.378-2.087 0z" fill="#ffcc80"/><path d="m7 18.877v2.421c0 .866.596 1.565 1.333 1.565h5.333c1.912 0 1.196-3.069 1.333-3.986-2.231 2.532-5.768 2.531-7.999 0z" fill="#2196f3"/><path d="m13.932 10.706c-.01 0-.01-.01-.021-.01-.475-.318-1.31-.32-1.868.25-.786.759-.333 1.624-.303 2.478l1.941 1.962c.501-.078.501.256.293.454-.225.225-.558.191-.73 0-1.512-1.684-2.62-2.154-2.692-3.579v-.021c-.136-.19-.051.317-.073-10.153 0-1.381-2.087-1.379-2.087 0-.197 7.621.462 8.87-.522 8.87-.958 0-.336-1.282-.522-6.783 0-1.381-2.087-1.379-2.087 0v10.956c0 1.659.71 3.151 1.837 4.205.01.01.01.01.021.01.446.597 2.148 1.525 3.881 1.525 1.791 0 3.474-.979 3.882-1.524.01 0 .01 0 .021-.01 2.428-2.271 1.708-5.029 1.837-5.906l-2.494-2.483c-.116-.105-.22-.189-.314-.241z" fill="#ffcc80"/><path d="m17.75 3.25c0-1.626-1.712-2.774-3.248-2.006-.836-1.656-3.166-1.658-4.004 0-1.492-.746-3.16.316-3.237 1.898-1.517-.55-3.011.599-3.011 2.108v10.25c0 2.341.86 3.68 2 4.452v2.298c0 .965.785 1.75 1.75 1.75h6c.965 0 1.75-.785 1.75-1.75v-2.298c1.14-.772 2-2.111 2-4.452zm-2.25-.75c.414 0 .75.336.75.75v8.615c-1.398-1.377-1.205-1.226-1.5-1.464v-7.151c0-.414.336-.75.75-.75zm-3.75-.25c0-.414.336-.75.75-.75s.75.336.75.75c0 .386 0 7.964 0 7.576-.516-.032-1.043.076-1.5.316 0-.262 0-8.13 0-7.892zm2.5 20c0 .136-.114.25-.25.25h-6c-.136 0-.25-.114-.25-.25v-1.609c1.2.353 2.441.359 3.25.359s2.05-.006 3.25-.359zm.258-3.316c-.884.434-2.075.566-3.508.566-3.241 0-5.25-.669-5.25-4v-10.25c0-.414.336-.75.75-.75s.75.336.75.75c0 .15 0 6.08 0 5.75 0 .414.336.75.75.75s.75-.336.75-.75c0-.179 0-5.879 0-5.75v-2c0-.414.336-.75.75-.75s.75.336.75.75c-.067 10.174.031 9.472.08 9.574.054.624.32 1.219.778 1.665l1.86 1.87c.146.147.339.221.532.221.191 0 .382-.073.529-.218.294-.292.295-.767.003-1.061l-1.868-1.878c-.248-.241-.374-.554-.354-.923 0-.309.125-.601.367-.836.373-.38.924-.515 1.503-.186.073.035.154.097.25.193l2.319 2.31v1.519c.001 2.777-1.424 3.154-1.741 3.434z"/></svg>