<svg enable-background="new 0 0 24 24" height="512" viewBox="0 0 24 24" width="512" xmlns="http://www.w3.org/2000/svg"><g fill="#ffcc80"><path d="m14.587 2.837v7.795l2.087 2.087v-9.882c0-1.381-2.087-1.379-2.087 0z"/><path d="m13.543 9.588v-7.795c0-1.381-2.087-1.379-2.087 0v7.127c.792-.106 1.535.146 2.087.668z"/><path d="m7.211 11.475c.974.974 2.444-.498 1.471-1.471-.1-.1-1.571-1.571-1.471-1.471-.985-.985-2.456.497-1.482 1.471z"/><path d="m9.61 10.006c.244-.325.475-.548.803-.741v-6.428c0-1.381-2.087-1.379-2.087 0v5.708c.686.715 1.06.938 1.284 1.461z"/></g><path d="m6.717 18.741c.146.915-.613 3.986 1.428 3.986h5.711c.79 0 1.428-.699 1.428-1.565v-2.421c-2.39 2.532-6.178 2.532-8.567 0z" fill="#2196f3"/><path d="m11.167 9.318c-.01 0-.021.01-.031.01-1.336.712-.761 2.032-.582 3.014l3.256 3.266c.519-.418.326.388-.2.388-.376 0-.179-.042-3.621-3.412-.303-.303-.532-.668-.647-1.064-1.998 2.003-3.742-.751-4.08-.96v4.57c0 2.369 1.67 4.216 1.857 4.216.446.596 2.148 1.524 3.881 1.524 1.791 0 3.474-.979 3.882-1.524.01 0 .01 0 .021-.01 2.428-2.271 1.708-5.029 1.837-5.906-3.121-2.74-3.99-4.903-5.573-4.112z" fill="#ffcc80"/><path d="m15.5 1c-.36 0-.696.093-.998.244-.371-.734-1.125-1.244-2.002-1.244s-1.631.51-2.002 1.244c-.302-.151-.638-.244-.998-.244-1.241 0-2.25 1.009-2.25 2.25v3.944c-.795-.267-1.731-.102-2.341.508-.405.404-.63.938-.651 1.508-.001.014-.008.026-.008.04v6.25c0 2.341.86 3.68 2 4.452v2.298c0 .965.785 1.75 1.75 1.75h6c.965 0 1.75-.785 1.75-1.75v-2.298c1.14-.772 2-2.111 2-4.452 0-3.096 0-9.15 0-12.25 0-1.241-1.009-2.25-2.25-2.25zm0 1.5c.414 0 .75.336.75.75v8.612l-1.5-1.496v-7.116c0-.414.336-.75.75-.75zm-3.75-.25c0-.414.336-.75.75-.75s.75.336.75.75c0 .133 0 7.1 0 6.724-.444-.262-.853-.426-1.5-.41 0-.181 0-6.615 0-6.314zm-2.25.25c.414 0 .75.336.75.75v5.778c-.309.208-.381.318-.475.419-.212-.314-.332-.376-1.025-1.086v-5.111c0-.414.336-.75.75-.75zm-3 6.043c.522 0 .635.408 1.944 1.634.292.292.292.768 0 1.061-.292.292-.768.292-1.061 0-1.236-1.321-1.633-1.418-1.633-1.945 0-.413.335-.75.75-.75zm7.75 13.707c0 .136-.114.25-.25.25h-6c-.136 0-.25-.114-.25-.25v-1.609c1.2.353 2.441.359 3.25.359s2.05-.006 3.25-.359zm.258-3.316c-.884.434-2.075.566-3.508.566-3.241 0-5.25-.669-5.25-4v-3.775l.573.573c.438.439 1.015.658 1.591.658.498 0 .99-.174 1.399-.501.134.285.308.553.539.777l3.117 3.127c.146.147.339.221.531.221.191 0 .383-.073.529-.219.293-.292.294-.768.002-1.061l-3.125-3.135c-1.121-1.093.555-2.969 1.767-1.751l3.577 3.567v1.519c0 2.777-1.425 3.154-1.742 3.434z"/></svg>