<svg enable-background="new 0 0 24 24" height="512" viewBox="0 0 24 24" width="512" xmlns="http://www.w3.org/2000/svg"><g fill="#ffcc80"><path d="m7.87 10.157c-.065-.286.35-2.087-1.044-2.087-1.43 0-.967 1.749-1.043 2.087 0 1.381 2.087 1.379 2.087 0z"/><path d="m11 11.2v-3.13c0-1.381-2.087-1.379-2.087 0v3.13c0 1.381 2.087 1.379 2.087 0z"/><path d="m13.995 10.261v-8.452c0-1.381-2.087-1.379-2.087 0v8.963c.574-.459 1.367-.636 2.087-.511z"/><path d="m14.652 2.853v7.847c.227.159.33.296 2.087 2.035v-9.882c0-1.381-2.087-1.379-2.087 0z"/></g><path d="m7.359 18.871c.136.939-.568 3.997 1.297 3.997h5.188c1.861 0 1.164-3.076 1.297-3.997-2.108 2.544-5.675 2.543-7.782 0z" fill="#2196f3"/><path d="m13.943 10.716c0-.008-.028-.021-.031-.021-1.757-.88-3.073 1.298-1.878 2.452 1.308 1.517 2.574 2.091 1.941 2.692-.225.225-.558.191-.73 0-1.512-1.684-2.62-2.154-2.692-3.579v-.01c-.01-.021-.01-.031-.01-.052-.01.01-.01.01-.021.01v.01c-1.147.689-2.615.151-3.047-1.096-.641.441-1.523.477-2.212.073.262 2.612-.846 5.631 1.837 8.139.01.01.01.01.021.01.444.598 2.146 1.526 3.879 1.526 1.791 0 3.474-.979 3.882-1.524.01 0 .01 0 .021-.01 2.428-2.271 1.708-5.029 1.837-5.906l-2.494-2.483c-.116-.105-.209-.178-.303-.231z" fill="#ffcc80"/><path d="m8.25 24h6c.965 0 1.75-.785 1.75-1.75v-2.298c1.14-.772 2-2.111 2-4.452v-12.25c0-1.241-1.009-2.25-2.25-2.25-.36 0-.696.093-.998.244-.371-.734-1.125-1.244-2.002-1.244-1.241 0-2.25 1.009-2.25 2.25v3.888c-1.133-.404-2.262.137-2.752 1.106-1.536-.768-3.248.379-3.248 2.006 0 .133 0 6.404 0 6.25 0 2.341.86 3.68 2 4.452v2.298c0 .965.785 1.75 1.75 1.75zm6.25-1.75c0 .136-.114.25-.25.25h-6c-.136 0-.25-.114-.25-.25v-1.609c1.2.353 2.441.359 3.25.359s2.05-.006 3.25-.359zm1.25-19.75c.414 0 .75.336.75.75v8.615c-1.398-1.377-1.205-1.226-1.5-1.464v-7.151c0-.414.336-.75.75-.75zm-3.75-.25c0-.414.336-.75.75-.75s.75.336.75.75c0 .386 0 7.964 0 7.576-.516-.032-1.043.076-1.5.316 0-.101 0-8.23 0-7.892zm-3 6c0-.414.336-.75.75-.75s.75.336.75.75v3c0 .414-.336.75-.75.75s-.75-.336-.75-.75c0-.97 0-3.123 0-3zm-3 1c0-.414.336-.75.75-.75s.75.336.75.75v1c0 .414-.336.75-.75.75s-.75-.336-.75-.75c0-.101 0-1.101 0-1zm0 3.112c.236.084.486.138.75.138.36 0 .696-.093.998-.244.371.734 1.125 1.244 2.002 1.244.328 0 .637-.074.918-.2.125.444.352.859.69 1.189l1.86 1.87c.146.147.339.221.532.221.191 0 .382-.073.529-.218.294-.292.295-.767.003-1.061-.791-1.044-3.195-2.33-1.854-3.638.372-.38.923-.515 1.503-.186.188.09.186.146 2.57 2.503v1.52c0 2.777-1.425 3.154-1.742 3.434-.884.434-2.075.566-3.508.566-3.241 0-5.25-.669-5.25-4v-3.138z"/></svg>