<svg enable-background="new 0 0 24 24" height="512" viewBox="0 0 24 24" width="512" xmlns="http://www.w3.org/2000/svg"><path d="m11.307 20.695c-1.986 0-2.734.246-4.171-1.318.147.941-.611 3.986 1.39 3.986h5.561c1.987 0 1.244-3.045 1.39-3.986-.278.303-.593.584-.927.824-.935.679-2.047.494-3.243.494z" fill="#2196f3"/><g fill="#ffcc80"><path d="m7.72 10.272c-.067-.283.369-2.087-1.091-2.087-1.475 0-1.018 1.779-1.091 2.087 0 1.38 2.182 1.378 2.182 0z"/><path d="m13.727 10.376c-.152-1.001.549-3.235-1.091-3.235-1.693 0-.909 2.356-1.091 3.746.6-.459 1.43-.636 2.182-.511z"/><path d="m10.841 11.315c-.206-1.748.628-4.174-1.091-4.174s-.885 2.424-1.091 4.174c0 .574 2.182 1.379 2.182 0z"/><path d="m14.066 10.706c-.011 0-.011-.01-.022-.01-1.482-.948-3.376 1.146-1.964 2.452 1.357 1.506 2.693 2.089 2.029 2.692-.235.224-.583.192-.764 0-1.604-1.708-2.739-2.161-2.815-3.579-.011-.021-.011-.042-.011-.063-.011.01-.011.01-.022.01v.01c-1.197.687-2.733.154-3.185-1.096-.666.44-1.588.481-2.312.075.269 2.565-.894 5.622 1.92 8.139.011.01.011.01.022.01.46.589 2.236 1.524 4.058 1.524 1.884 0 3.637-.986 4.058-1.523.011 0 .011 0 .022-.01 2.536-2.269 1.786-5.028 1.92-5.906-2.355-2.219-2.621-2.558-2.934-2.725z"/><path d="m14.818 1.97v8.89c.237.159.329.281 2.182 2.035v-10.925c0-1.381-2.182-1.379-2.182 0z"/></g><path d="m8.25 24h6c.965 0 1.75-.785 1.75-1.75v-2.298c1.14-.772 2-2.111 2-4.452v-13.25c0-1.241-1.009-2.25-2.25-2.25s-2.25 1.009-2.25 2.25v3.888c-.841-.3-1.662-.083-2.25.447-1.121-1.011-2.835-.662-3.502.659-1.536-.768-3.248.379-3.248 2.006 0 .133 0 6.404 0 6.25 0 2.341.86 3.68 2 4.452v2.298c0 .965.785 1.75 1.75 1.75zm6.25-1.75c0 .136-.114.25-.25.25h-6c-.136 0-.25-.114-.25-.25v-1.609c1.2.353 2.441.359 3.25.359s2.05-.006 3.25-.359zm.5-20c0-.414.336-.75.75-.75s.75.336.75.75v9.615c-1.398-1.377-1.205-1.226-1.5-1.464 0-.225 0-8.252 0-8.151zm-2.25 5.25c.414 0 .75.336.75.75v1.576c-.516-.032-1.043.076-1.5.316v-1.892c0-.414.336-.75.75-.75zm-3.75.75c0-.414.336-.75.75-.75s.75.336.75.75v3c0 .414-.336.75-.75.75s-.75-.336-.75-.75c0-.97 0-3.123 0-3zm-3 1c0-.414.336-.75.75-.75s.75.336.75.75v1c0 .414-.336.75-.75.75s-.75-.336-.75-.75c0-.101 0-1.101 0-1zm0 3.112c.59.21 1.167.185 1.748-.106.371.734 1.125 1.244 2.002 1.244.328 0 .637-.074.918-.2.125.444.352.859.69 1.189l1.86 1.87c.146.147.339.221.532.221.191 0 .382-.073.529-.218.294-.292.295-.767.003-1.061l-1.868-1.878c-1.125-1.096.55-2.968 1.767-1.751l2.319 2.31v1.518c0 2.777-1.425 3.154-1.742 3.434-.884.434-2.075.566-3.508.566-3.241 0-5.25-.669-5.25-4z"/></svg>